
      <svg data-logo="logo" xmlns="http://www.w3.org/2000/svg" viewBox="0 0 51 41">
        <g id="logogram" transform="translate(0, 0) rotate(0) "><path d="M25.3019 0.809967L50.3018 15.8198V25.7963L25.3019 40.81L0.301758 25.7963V15.8199L25.3019 0.809967Z" fill="#D1D5DB"/><path fill-rule="evenodd" clip-rule="evenodd" d="M0.301758 15.8198L25.3018 0.809967L50.3018 15.8198V25.7963L25.3018 40.81L0.301758 25.7963V15.8198ZM25.3018 34.441L44.9985 22.6122V19.0051L44.9975 19.0045L25.3018 30.8297L5.60602 19.0045L5.60506 19.0051V22.6122L25.3018 34.441ZM25.3018 25.3146L40.4036 16.2476L36.7247 14.0398L25.3018 20.8981L13.8789 14.0398L10.2 16.2476L25.3018 25.3146ZM25.3018 15.383L32.1308 11.2829L25.3018 7.18464L18.4728 11.2829L25.3018 15.383Z" fill="#475569"/><path d="M25.3019 0.809967L0.301758 15.8199V25.7963L25.3018 40.81L25.3019 0.809967Z" fill="#D1D5DB" fill-opacity="0.3"/></g>
        <g id="logotype" transform="translate(51, 20.5)"></g>
        
      </svg>
     